<?xml version="1.0" encoding="utf-8"?>
<!-- Generator: Adobe Illustrator 21.0.2, SVG Export Plug-In . SVG Version: 6.00 Build 0)  -->
<svg version="1.1" id="Слой_1" xmlns="http://www.w3.org/2000/svg" xmlns:xlink="http://www.w3.org/1999/xlink" x="0px" y="0px"
	 viewBox="0 0 50 50" style="enable-background:new 0 0 50 50;" xml:space="preserve">
<style type="text/css">
	.st0{fill:#808080;}
</style>
		<path class="st0" d="M40.5,29.4c0-0.7-0.4-0.9-1-0.4L24,42.2c-0.3,0.2-0.7,0.2-0.9-0.1l-2.5-3c-0.2-0.3-0.2-0.7,0.1-0.9l13.8-11.8
			c0.3-0.2,0.3-0.6,0-0.8L20.7,13.8c-0.3-0.2-0.3-0.6-0.1-0.9l2.5-3c0.2-0.3,0.6-0.3,0.9-0.1l15.5,13.2c0.5,0.5,1,0.3,1-0.4v-6.2
			c0-0.3,0.3-0.6,0.6-0.6h4.4c0.3,0,0.6,0.3,0.6,0.6v19.2c0,0.4-0.3,0.6-0.6,0.6h-4.4c-0.3,0-0.6-0.3-0.6-0.6V29.4z M25.4,25.2
			c0.5,0.5,0.5,1.2,0,1.6l-18,15.4c-0.3,0.2-0.7,0.2-0.9-0.1l-2.5-3c-0.2-0.3-0.2-0.7,0.1-0.9l13.8-11.8c0.3-0.2,0.3-0.6,0-0.8
			L4.1,13.8c-0.3-0.2-0.3-0.6-0.1-0.9l2.5-3c0.2-0.3,0.6-0.3,0.9-0.1L25.4,25.2z"/>
</svg>
